<!--?xml version="1.0" standalone="no"?-->
              <svg id="sw-js-blob-svg" viewBox="0 0 100 100" xmlns="http://www.w3.org/2000/svg" version="1.1">
                    <defs> 
                        <linearGradient id="sw-gradient" x1="0" x2="1" y1="1" y2="0">
                            <stop id="stop1" stop-color="rgba(241, 0, 82, 1)" offset="0%"></stop>
                            <stop id="stop2" stop-color="rgba(241, 118.884, 0, 1)" offset="100%"></stop>
                        </linearGradient>
                    </defs>
                <path fill="url(#sw-gradient)" d="M25.2,-30.8C30.7,-25.4,31.9,-15.6,31.9,-6.9C31.8,1.8,30.6,9.4,28,18.2C25.3,27,21.2,36.9,14.4,39.2C7.7,41.5,-1.7,36,-10.5,31.6C-19.2,27.2,-27.2,23.8,-33.4,17.3C-39.6,10.7,-44,1.1,-42,-7C-40.1,-15,-31.8,-21.6,-23.8,-26.5C-15.7,-31.5,-7.9,-34.9,1,-36C9.8,-37.2,19.7,-36.2,25.2,-30.8Z" width="100%" height="100%" transform="translate(50 50)" stroke-width="0" style="transition: all 0.3s ease 0s;" stroke="url(#sw-gradient)"></path>
              </svg>